<svg aria-hidden="true" style="position: absolute; width: 0; height: 0; overflow: hidden;" version="1.1" xmlns="http://www.w3.org/2000/svg" xmlns:xlink="http://www.w3.org/1999/xlink">
<defs>
<symbol id="icon-remove" viewBox="0 0 25 32">
<path d="M23.179 23.607c0 0.446-0.179 0.893-0.5 1.214l-2.429 2.429c-0.321 0.321-0.768 0.5-1.214 0.5s-0.893-0.179-1.214-0.5l-5.25-5.25-5.25 5.25c-0.321 0.321-0.768 0.5-1.214 0.5s-0.893-0.179-1.214-0.5l-2.429-2.429c-0.321-0.321-0.5-0.768-0.5-1.214s0.179-0.893 0.5-1.214l5.25-5.25-5.25-5.25c-0.321-0.321-0.5-0.768-0.5-1.214s0.179-0.893 0.5-1.214l2.429-2.429c0.321-0.321 0.768-0.5 1.214-0.5s0.893 0.179 1.214 0.5l5.25 5.25 5.25-5.25c0.321-0.321 0.768-0.5 1.214-0.5s0.893 0.179 1.214 0.5l2.429 2.429c0.321 0.321 0.5 0.768 0.5 1.214s-0.179 0.893-0.5 1.214l-5.25 5.25 5.25 5.25c0.321 0.321 0.5 0.768 0.5 1.214z"></path>
</symbol>
<symbol id="icon-heart-unliked" viewBox="0 0 32 32">
<path d="M27.504 6.65c-2.675-2.456-7.013-2.456-9.688 0l-1.816 1.666-1.818-1.666c-2.675-2.456-7.011-2.456-9.686 0-3.010 2.762-3.010 7.23 0 9.992l11.504 10.558 11.504-10.558c3.008-2.762 3.008-7.232 0-9.992zM25.798 15l-9.798 9.144-9.8-9.144c-0.987-0.907-1.37-2.091-1.37-3.35s0.221-2.293 1.21-3.198c0.872-0.802 2.045-1.243 3.301-1.243 1.254 0 2.427 0.762 3.299 1.565l3.36 2.92 3.358-2.922c0.874-0.803 2.045-1.565 3.301-1.565s2.429 0.442 3.301 1.243c0.989 0.906 1.208 1.939 1.208 3.198s-0.381 2.445-1.37 3.352z"></path>
</symbol>
<symbol id="icon-heart-liked" viewBox="0 0 32 32">
<path d="M27.504 6.648c-2.675-2.454-7.013-2.454-9.688 0l-1.816 1.667-1.818-1.667c-2.675-2.454-7.011-2.454-9.686 0-3.010 2.763-3.010 7.232 0 9.994l11.504 10.558 11.504-10.558c3.008-2.762 3.008-7.232 0-9.994z"></path>
</symbol>
<symbol id="icon-search" viewBox="0 0 32 32">
<path d="M31.008 27.231l-7.58-6.447c-0.784-0.705-1.622-1.029-2.299-0.998 1.789-2.096 2.87-4.815 2.87-7.787 0-6.627-5.373-12-12-12s-12 5.373-12 12 5.373 12 12 12c2.972 0 5.691-1.081 7.787-2.87-0.031 0.677 0.293 1.515 0.998 2.299l6.447 7.58c1.104 1.226 2.907 1.33 4.007 0.23s0.997-2.903-0.23-4.007zM12 20c-4.418 0-8-3.582-8-8s3.582-8 8-8 8 3.582 8 8-3.582 8-8 8z"></path>
</symbol>
</defs>
</svg>
